<svg preserveAspectRatio="xMidYMid meet" width="100%" height="100%" overflow="visible" style="display: block;" viewBox="0 0 16 16" fill="none" xmlns="http://www.w3.org/2000/svg">
<g id="Component 404">
<path id="Vector" fill-rule="evenodd" clip-rule="evenodd" d="M6.98438 14.6695L7.15943 14.3738C7.43997 13.8998 7.58024 13.6628 7.80369 13.5307C8.02713 13.3985 8.31859 13.3892 8.90152 13.3705C9.44811 13.353 9.81547 13.3054 10.1296 13.1752C10.7909 12.9013 11.3163 12.3759 11.5902 11.7146C11.7957 11.2186 11.7957 10.5898 11.7957 9.3323V8.79252C11.7957 7.02557 11.7957 6.14209 11.3979 5.49309C11.1754 5.12993 10.8701 4.8246 10.5069 4.60206C9.85791 4.20435 8.97444 4.20435 7.2075 4.20435H5.58815C3.82121 4.20435 2.93774 4.20435 2.28874 4.60206C1.92558 4.8246 1.62025 5.12993 1.39771 5.49309C1 6.14209 1 7.02557 1 8.79252V9.3323C1 10.5898 1 11.2186 1.20544 11.7146C1.47937 12.3759 2.00477 12.9013 2.66608 13.1752C2.98019 13.3054 3.34754 13.353 3.89412 13.3705C4.47704 13.3892 4.7685 13.3985 4.99195 13.5307C5.21539 13.6628 5.35566 13.8998 5.6362 14.3738L5.81125 14.6695C6.07205 15.1102 6.72358 15.1102 6.98438 14.6695ZM8.75938 9.60217C9.13202 9.60217 9.43411 9.30009 9.43411 8.92744C9.43411 8.5548 9.13202 8.25272 8.75938 8.25272C8.38673 8.25272 8.08465 8.5548 8.08465 8.92744C8.08465 9.30009 8.38673 9.60217 8.75938 9.60217ZM7.07256 8.92744C7.07256 9.30009 6.77047 9.60217 6.39783 9.60217C6.02519 9.60217 5.7231 9.30009 5.7231 8.92744C5.7231 8.5548 6.02519 8.25272 6.39783 8.25272C6.77047 8.25272 7.07256 8.5548 7.07256 8.92744ZM4.03628 9.60217C4.40892 9.60217 4.71101 9.30009 4.71101 8.92744C4.71101 8.5548 4.40892 8.25272 4.03628 8.25272C3.66364 8.25272 3.36155 8.5548 3.36155 8.92744C3.36155 9.30009 3.66364 9.60217 4.03628 9.60217Z" fill="#6B7684"/>
<path id="Vector_2" opacity="0.5" d="M10.2181 1C11.0243 0.999995 11.6654 0.999991 12.1796 1.04888C12.7068 1.09901 13.1526 1.20409 13.5497 1.44743C13.9582 1.69779 14.3017 2.04128 14.5521 2.44983C14.7954 2.84693 14.9005 3.2927 14.9506 3.81992C14.9995 4.3341 14.9995 4.97527 14.9995 5.78148V6.33213C14.9995 6.9059 14.9995 7.36231 14.9743 7.73239C14.9484 8.11101 14.8945 8.43613 14.7684 8.74056C14.4602 9.48454 13.8691 10.0756 13.1252 10.3838C13.1066 10.3915 13.0879 10.3989 13.0691 10.4061C12.9793 10.4404 12.9023 10.4699 12.8348 10.4918H11.7846C11.7949 10.1742 11.7949 9.79599 11.7949 9.33229V8.7925C11.7949 7.02555 11.7949 6.14208 11.3972 5.49307C11.1747 5.12992 10.8694 4.82459 10.5062 4.60204C9.85721 4.20433 8.97374 4.20433 7.2068 4.20433H5.58745C4.96034 4.20433 4.44452 4.20433 4.01097 4.22211V3.17181C4.03178 3.09967 4.0603 3.01699 4.09378 2.91993C4.15072 2.75485 4.22268 2.59874 4.31392 2.44983C4.56428 2.04128 4.90778 1.69779 5.31632 1.44743C5.71342 1.20409 6.15919 1.09901 6.68641 1.04888C7.20059 0.999991 7.84173 0.999995 8.64796 1H10.2181Z" fill="#B0B8C1"/>
</g>
</svg>
