<svg width="16" height="16" viewBox="0 0 16 16" fill="none" xmlns="http://www.w3.org/2000/svg">
<path d="M5.00651 13.2012C5.8875 13.7093 6.90968 14 7.99976 14C11.3135 14 14 11.3137 14 8C14 4.68629 11.3137 2 8 2C4.68629 2 2 4.68629 2 8C2 9.09008 2.2907 10.1123 2.7988 10.9933L2.80076 10.9967C2.84965 11.0814 2.87431 11.1242 2.88547 11.1646C2.896 11.2027 2.89895 11.2369 2.89625 11.2764C2.89335 11.3187 2.87907 11.3627 2.84979 11.4505L2.33724 12.9882L2.33659 12.9902C2.22845 13.3146 2.17438 13.4768 2.21292 13.5849C2.24653 13.6792 2.32112 13.7535 2.41536 13.7871C2.52321 13.8256 2.6847 13.7718 3.0077 13.6641L3.01172 13.6626L4.54936 13.1501C4.63692 13.1209 4.68142 13.1061 4.72373 13.1032C4.76317 13.1005 4.79718 13.1041 4.83529 13.1146C4.87579 13.1258 4.91856 13.1504 5.00376 13.1996L5.00651 13.2012Z" stroke="#3182F6" stroke-width="1.5" stroke-linecap="round" stroke-linejoin="round"/>
<circle cx="5.6" cy="7.9" r="0.85" fill="#3182F6"/>
<circle cx="8" cy="7.9" r="0.85" fill="#3182F6"/>
<circle cx="10.4" cy="7.9" r="0.85" fill="#3182F6"/>
</svg>
