<svg width="100%" height="100%" overflow="visible" style="display: block;" viewBox="0 0 14 13.667" fill="none" xmlns="http://www.w3.org/2000/svg">
<g id="Group 9">
<rect id="Rectangle 40377" y="1.66699" width="14" height="12" rx="2" fill="#D1D6DB"/>
<path id="Vector" d="M9 7.33333L6.33333 10L5 8.66667" stroke="#8B95A1" stroke-width="1.33333" stroke-linecap="round" stroke-linejoin="round"/>
<path id="Union" d="M9.66602 0C10.0342 0 10.333 0.298802 10.333 0.666992V1H12C13.1046 1 14 1.89543 14 3V4H0V3C0 1.89543 0.895431 1 2 1H3.66602V0.666992C3.66602 0.298802 3.96482 0 4.33301 0C4.7012 0 5 0.298802 5 0.666992V1H9V0.666992C9 0.298911 9.29798 0.000175864 9.66602 0Z" fill="#8B95A1"/>
</g>
</svg>
