<svg preserveAspectRatio="none" width="100%" height="100%" overflow="visible" style="display: block;" viewBox="0 0 15.7501 15.2922" fill="none" xmlns="http://www.w3.org/2000/svg">
<g id="Group 9">
<rect id="Rectangle 40377" y="1.79222" width="15.75" height="13.5" rx="2" fill="var(--fill-0, #D1D6DB)"/>
<path id="Union" d="M12.3751 11.625C12.7433 11.6251 13.0421 11.9238 13.0421 12.292C13.0421 12.6601 12.7432 12.9589 12.3751 12.959H9.00012C8.63197 12.959 8.33319 12.6601 8.33313 12.292C8.33313 11.9238 8.63193 11.625 9.00012 11.625H12.3751ZM10.8732 0C11.2413 2.46792e-07 11.54 0.298918 11.5402 0.666992V1.04199H13.7501C14.8546 1.04206 15.7501 1.93746 15.7501 3.04199V4.41699H0.00012219V3.04199C0.00012219 1.93742 0.895553 1.04199 2.00012 1.04199H4.20618V0.666992C4.20631 0.29904 4.50523 0.000197677 4.87317 0C5.24127 0 5.54003 0.298918 5.54016 0.666992V1.04199H10.2062V0.666992C10.2063 0.29904 10.5052 0.000197677 10.8732 0Z" fill="var(--fill-0, #8B95A1)"/>
</g>
</svg>
