<svg preserveAspectRatio="none" width="100%" height="100%" overflow="visible" style="display: block;" viewBox="0 0 16 16" fill="none" xmlns="http://www.w3.org/2000/svg">
<g id="Icon/Copy/-">
<path id="Vector" d="M10.0001 6V4.13346C10.0001 3.38673 10.0001 3.01308 9.85477 2.72786C9.72694 2.47698 9.52312 2.27316 9.27223 2.14532C8.98702 2 8.61338 2 7.86664 2H4.13333C3.3866 2 3.01343 2 2.72822 2.14532C2.47733 2.27316 2.27315 2.47698 2.14532 2.72786C2 3.01308 2 3.38645 2 4.13319V7.86654C2 8.61327 2 8.98664 2.14532 9.27186C2.27315 9.52274 2.47753 9.72699 2.72841 9.85482C3.01335 10 3.38613 10 4.13141 10L6.00005 10.0001M10.0001 6H8.13354C7.38679 6 7.01314 6 6.72792 6.14532C6.47703 6.27316 6.27321 6.47698 6.14537 6.72786C6.00005 7.01308 6.00005 7.38673 6.00005 8.13346V10.0001M10.0001 6H11.8669C12.6137 6 12.9868 6 13.2721 6.14532C13.5229 6.27316 13.7271 6.47698 13.855 6.72786C14.0001 7.0128 14.0001 7.386 14.0001 8.1313L14.0001 10V11.8687C14.0001 12.614 14.0001 12.9868 13.855 13.2717C13.7271 13.5226 13.5229 13.727 13.2721 13.8548C12.9871 14 12.6144 14 11.8692 14H8.13134C7.38606 14 7.01286 14 6.72792 13.8548C6.47703 13.727 6.27321 13.5228 6.14537 13.2719C6.00005 12.9867 6.00005 12.6135 6.00005 11.8668V10.0001" stroke="#3182F6" stroke-width="1.33333" stroke-linecap="round" stroke-linejoin="round"/>
</g>
</svg>
