<svg preserveAspectRatio="none" width="100%" height="100%" overflow="visible" style="display: block;" viewBox="0 0 16 16" fill="none" xmlns="http://www.w3.org/2000/svg">
<g id="Icon">
<path id="Vector" fill-rule="evenodd" clip-rule="evenodd" d="M9.33301 14.6667H6.66634C4.15218 14.6667 2.8951 14.6667 2.11406 13.8857C1.33301 13.1046 1.33301 11.8475 1.33301 9.33337V6.66671C1.33301 4.15255 1.33301 2.89547 2.11406 2.11442C2.8951 1.33337 4.1588 1.33337 6.6862 1.33337C7.09021 1.33337 7.41394 1.33337 7.68635 1.34448C7.67738 1.39777 7.67268 1.45213 7.6725 1.50708L7.66634 3.39669C7.66628 4.12809 7.66623 4.77447 7.73628 5.29548C7.81221 5.86022 7.98654 6.42488 8.44739 6.88573C8.90824 7.34658 9.4729 7.52091 10.0376 7.59684C10.5587 7.66689 11.205 7.66684 11.9364 7.66678L11.9997 7.66678H14.6379C14.6663 8.02296 14.6663 8.4601 14.6663 9.04197V9.33337C14.6663 11.8475 14.6663 13.1046 13.8853 13.8857C13.1042 14.6667 11.8472 14.6667 9.33301 14.6667Z" fill="#D1D6DB"/>
<g id="Vector_2">
<path d="M4 9.16667C3.72386 9.16667 3.5 9.39052 3.5 9.66667C3.5 9.94281 3.72386 10.1667 4 10.1667H9.33333C9.60948 10.1667 9.83333 9.94281 9.83333 9.66667C9.83333 9.39052 9.60948 9.16667 9.33333 9.16667H4Z" fill="#8B95A1"/>
<path d="M4 11.5C3.72386 11.5 3.5 11.7239 3.5 12C3.5 12.2761 3.72386 12.5 4 12.5H7.66667C7.94281 12.5 8.16667 12.2761 8.16667 12C8.16667 11.7239 7.94281 11.5 7.66667 11.5H4Z" fill="#8B95A1"/>
</g>
<path id="Subtract" d="M7.67315 1.50677L7.667 3.39637C7.66694 4.12777 7.66689 4.77416 7.73694 5.29517C7.81286 5.85991 7.9872 6.42457 8.44805 6.88542C8.90889 7.34627 9.47355 7.5206 10.0383 7.59653C10.5593 7.66658 11.2057 7.66653 11.9371 7.66647L14.6386 7.66647C14.6469 7.77017 14.6527 7.88073 14.6569 7.99973H14.667C14.667 7.8214 14.667 7.73224 14.6604 7.62726C14.6227 7.03088 14.3748 6.34754 14.0213 5.86572C13.9591 5.78091 13.9166 5.72999 13.8315 5.62816C13.3031 4.99577 12.6077 4.20799 12.0003 3.6664C11.4598 3.18434 10.7194 2.65695 10.0738 2.22571C9.51903 1.8552 9.24167 1.66995 8.86135 1.53227C8.76052 1.49576 8.62753 1.45545 8.52341 1.42981C8.26741 1.3668 8.01819 1.34488 7.667 1.33728L7.67315 1.50677Z" fill="#8B95A1"/>
</g>
</svg>
