<svg preserveAspectRatio="xMidYMid meet" width="100%" height="100%" overflow="visible" style="display: block;" viewBox="0 0 18 18" fill="none" xmlns="http://www.w3.org/2000/svg">
<g id="location">
<ellipse id="Ellipse 7100" cx="9" cy="14" rx="7" ry="3" fill="#FFCD80"/>
<path id="Vector" d="M4 6.32134C4 9.87554 7.03179 12.373 8.37373 13.4999C8.56579 13.6612 8.66296 13.7428 8.80625 13.7841C8.91782 13.8163 9.08203 13.8163 9.1936 13.7841C9.33715 13.7427 9.43365 13.6619 9.62643 13.5C10.9684 12.3731 14 9.87587 14 6.32166C14 4.97662 13.4732 3.6865 12.5356 2.73541C11.5979 1.78432 10.3262 1.25 9.00009 1.25C7.674 1.25 6.40216 1.7844 5.46447 2.73549C4.52679 3.68658 4 4.97629 4 6.32134Z" fill="#6B7684"/>
<path id="Vector_2" d="M7.49902 5.62512C7.49902 6.45355 8.1706 7.12512 8.99902 7.12512C9.82745 7.12512 10.499 6.45355 10.499 5.62512C10.499 4.7967 9.82745 4.12512 8.99902 4.12512C8.1706 4.12512 7.49902 4.7967 7.49902 5.62512Z" fill="white"/>
</g>
</svg>
