<svg preserveAspectRatio="xMidYMid meet" width="100%" height="100%" overflow="visible" style="display: block;" viewBox="0 0 18 18" fill="none" xmlns="http://www.w3.org/2000/svg">
<g id="location">
<ellipse id="Ellipse 7100" cx="9" cy="13.5" rx="7" ry="2.5" fill="#FFCD80"/>
<path id="Vector" d="M4.5 6.63866C4.5 9.71441 7.22861 12.2579 8.43636 13.2331C8.60921 13.3727 8.69667 13.4433 8.82562 13.4791C8.92604 13.507 9.07382 13.507 9.17424 13.4791C9.30344 13.4432 9.39028 13.3733 9.56378 13.2332C10.7715 12.258 13.5 9.71469 13.5 6.63894C13.5 5.47496 13.0259 4.35851 12.182 3.53545C11.3381 2.71239 10.1936 2.25 9.00008 2.25C7.8066 2.25 6.66195 2.71246 5.81803 3.53552C4.97411 4.35858 4.5 5.47468 4.5 6.63866Z" fill="#4E5968"/>
<path id="Vector_2" d="M7.49902 6.62512C7.49902 7.45355 8.1706 8.12512 8.99902 8.12512C9.82745 8.12512 10.499 7.45355 10.499 6.62512C10.499 5.7967 9.82745 5.12512 8.99902 5.12512C8.1706 5.12512 7.49902 5.7967 7.49902 6.62512Z" fill="white" stroke="#4E5968" stroke-width="0.5" stroke-linecap="round" stroke-linejoin="round"/>
</g>
</svg>
