<svg width="16" height="16" viewBox="0 0 16 16" fill="none" xmlns="http://www.w3.org/2000/svg">
<path d="M3 7.07134C3 10.6255 6.03179 13.5647 7.37373 14.6916C7.56579 14.8529 7.66296 14.9345 7.80625 14.9758C7.91782 15.0081 8.08203 15.0081 8.1936 14.9758C8.33715 14.9344 8.43365 14.8536 8.62643 14.6917C9.96837 13.5648 13 10.6259 13 7.07166C13 5.72662 12.4732 4.4365 11.5356 3.48541C10.5979 2.53432 9.32618 2 8.00009 2C6.674 2 5.40216 2.5344 4.46447 3.48549C3.52679 4.43658 3 5.72629 3 7.07134Z" fill="#B0B8C1"/>
<path d="M6.66602 6.00002C6.66602 6.7364 7.26297 7.33335 7.99935 7.33335C8.73573 7.33335 9.33268 6.7364 9.33268 6.00002C9.33268 5.26364 8.73573 4.66669 7.99935 4.66669C7.26297 4.66669 6.66602 5.26364 6.66602 6.00002Z" fill="white"/>
</svg>
