<svg preserveAspectRatio="none" width="100%" height="100%" overflow="visible" style="display: block;" viewBox="0 0 28 28" fill="none" xmlns="http://www.w3.org/2000/svg">
<g id="Icon/Notification">
<path id="Vector" d="M5.60416 16.5623L5.14974 17.0168C5.01055 17.1559 4.94088 17.2259 4.88542 17.3031C4.7806 17.4491 4.71117 17.6172 4.68207 17.7945C4.66667 17.8884 4.66667 17.9868 4.66667 18.1836C4.66667 18.6334 4.66667 18.8583 4.72786 19.0397C4.84429 19.3849 5.1156 19.6559 5.46078 19.7724C5.64149 19.8333 5.86485 19.8333 6.31115 19.8333H21.6889C22.1352 19.8333 22.3594 19.8333 22.5401 19.7724C22.8853 19.6559 23.1554 19.3849 23.2718 19.0397C23.333 18.8583 23.333 18.6334 23.333 18.1836C23.333 17.9868 23.3328 17.8884 23.3174 17.7945C23.2883 17.6172 23.2195 17.4491 23.1146 17.3031C23.0593 17.226 22.9889 17.1556 22.8502 17.0168L22.8501 17.0168L22.3957 16.5623C22.2491 16.4157 22.1667 16.2168 22.1667 16.0095V11.6667C22.1667 7.15633 18.5103 3.49999 14 3.5C9.48968 3.50001 5.83333 7.15635 5.83333 11.6667V16.0095C5.83333 16.2169 5.75078 16.4157 5.60416 16.5623Z" fill="#B0B8C1"/>
<circle id="Ellipse 113" cx="25.2" cy="3.03333" r="1.86667" fill="#F04452"/>
<path id="Vector_2" d="M17.5 21.875V21H10.5V21.875C10.5 23.3247 12.067 24.5 14 24.5C15.933 24.5 17.5 23.3247 17.5 21.875Z" fill="#B0B8C1"/>
</g>
</svg>
