<svg preserveAspectRatio="none" width="100%" height="100%" overflow="visible" style="display: block;" viewBox="0 0 16 16" fill="none" xmlns="http://www.w3.org/2000/svg">
<g id="Component 404">
<path id="Vector" d="M6.66634 1.33331H9.33301C11.8472 1.33331 13.1042 1.33331 13.8853 2.11436C14.6663 2.89541 14.6663 4.15249 14.6663 6.66665V7.33331C14.6663 7.70106 14.6663 8.36628 14.662 8.66665H1.33735C1.33301 8.36628 1.33301 7.70106 1.33301 7.33331V6.66665C1.33301 4.15249 1.33301 2.89541 2.11406 2.11436C2.8951 1.33331 4.15218 1.33331 6.66634 1.33331Z" fill="#6B7684"/>
<path id="Vector_2" d="M5.32274 11.6667C3.42986 11.6667 2.48342 11.6667 1.89538 11.0809C1.51439 10.7014 1.38024 10.172 1.33301 9.33335V8.66669H14.6663V9.33335C14.6191 10.172 14.485 10.7014 14.104 11.0809C13.5159 11.6667 12.5695 11.6667 10.6766 11.6667H8.5016V13.5001H10.6766C10.9538 13.5001 11.1785 13.7239 11.1785 14.0001C11.1785 14.2762 10.9538 14.5001 10.6766 14.5001H5.32274C5.04554 14.5001 4.82082 14.2762 4.82082 14.0001C4.82082 13.7239 5.04554 13.5001 5.32274 13.5001H7.49775V11.6667H5.32274Z" fill="#B0B8C1"/>
</g>
</svg>
