<svg preserveAspectRatio="xMidYMid meet" width="100%" height="100%" overflow="visible" style="display: block;" viewBox="0 0 18 18" fill="none" xmlns="http://www.w3.org/2000/svg">
<g id="Icon">
<path id="Vector" d="M7.49963 1.49998H10.4996C13.3281 1.49998 14.7423 1.49998 15.621 2.37866C16.4996 3.25734 16.4996 4.67155 16.4996 7.49998V8.24998C16.4996 8.66369 16.4996 9.41206 16.4947 9.74998H1.50452C1.49963 9.41206 1.49963 8.66369 1.49963 8.24998V7.49998C1.49963 4.67155 1.49963 3.25734 2.37831 2.37866C3.25699 1.49998 4.67121 1.49998 7.49963 1.49998Z" fill="#6B7684"/>
<path id="Vector_2" d="M5.98808 13.125C3.8586 13.125 2.79385 13.125 2.13231 12.466C1.70368 12.039 1.55277 11.4435 1.49963 10.5V9.75002H16.4996V10.5C16.4465 11.4435 16.2956 12.039 15.867 12.466C15.2054 13.125 14.1407 13.125 12.0112 13.125H9.5643V15.1876H12.0112C12.323 15.1876 12.5759 15.4394 12.5759 15.7501C12.5759 16.0607 12.323 16.3126 12.0112 16.3126H5.98808C5.67623 16.3126 5.42342 16.0607 5.42342 15.7501C5.42342 15.4394 5.67623 15.1876 5.98808 15.1876H8.43497V13.125H5.98808Z" fill="#D1D6DB"/>
</g>
</svg>
