<svg preserveAspectRatio="none" width="100%" height="100%" overflow="visible" style="display: block;" viewBox="0 0 14 14" fill="none" xmlns="http://www.w3.org/2000/svg">
<g id="Bold / Weather / Stars">
<path id="Vector" d="M4.34749 1.58239C4.5661 1.02809 5.35057 1.02809 5.56918 1.58239L6.24663 3.3001C6.31338 3.46933 6.44733 3.60329 6.61656 3.67003L8.33428 4.34749C8.88857 4.5661 8.88857 5.35057 8.33428 5.56918L6.61656 6.24663C6.44733 6.31338 6.31338 6.44733 6.24663 6.61656L5.56918 8.33428C5.35057 8.88857 4.5661 8.88857 4.34749 8.33428L3.67003 6.61656C3.60329 6.44733 3.46933 6.31338 3.3001 6.24663L1.58239 5.56918C1.02809 5.35057 1.02809 4.5661 1.58239 4.34749L3.3001 3.67003C3.46933 3.60329 3.60329 3.46933 3.67003 3.3001L4.34749 1.58239Z" fill="#5D9AFF"/>
<path id="Vector_2" d="M9.87264 7.81179C9.99278 7.50718 10.4239 7.50718 10.544 7.81179L11.0694 9.14395C11.1061 9.23695 11.1797 9.31057 11.2727 9.34725L12.6049 9.87264C12.9095 9.99278 12.9095 10.4239 12.6049 10.544L11.2727 11.0694C11.1797 11.1061 11.1061 11.1797 11.0694 11.2727L10.544 12.6049C10.4239 12.9095 9.99278 12.9095 9.87264 12.6049L9.34725 11.2727C9.31057 11.1797 9.23695 11.1061 9.14395 11.0694L7.81179 10.544C7.50718 10.4239 7.50718 9.99278 7.81179 9.87264L9.14395 9.34725C9.23695 9.31057 9.31057 9.23695 9.34725 9.14395L9.87264 7.81179Z" fill="#0BB4FF"/>
</g>
</svg>
