<svg width="100%" height="100%" overflow="visible" style="display: block;" viewBox="0 0 16 11.6152" fill="none" xmlns="http://www.w3.org/2000/svg">
<g id="Group 10">
<path id="Subtract" d="M4.0332 6.61479C4.27212 6.61479 4.5059 6.63023 4.7334 6.65483C4.52704 6.7512 4.3299 6.85577 4.14453 6.97026C3.1361 7.59323 2.34808 8.55928 2.34766 9.7642L2.35156 9.89701C2.36748 10.1432 2.42817 10.3665 2.52051 10.5679C1.28367 10.4278 0 10.0556 0 9.10502C0.000440935 7.72945 1.80599 6.6148 4.0332 6.61479ZM4.03418 0.967327C4.28811 0.967327 4.53273 1.00705 4.7627 1.07963C4.45756 1.61786 4.28338 2.24006 4.2832 2.90287L4.28809 3.0933C4.33421 4.00418 4.70996 4.82795 5.29785 5.44877C4.92971 5.67509 4.49797 5.80815 4.03418 5.80815C2.69795 5.80801 1.61451 4.72442 1.61426 3.38823C1.61427 2.05182 2.6978 0.96746 4.03418 0.967327Z" fill="#D1D6DB"/>
<path id="Subtract_2" d="M11.9668 6.72203C11.7272 6.72203 11.4927 6.73732 11.2646 6.76207C11.4717 6.85869 11.6695 6.96363 11.8555 7.07848C12.8639 7.70147 13.6519 8.6675 13.6523 9.87242L13.6484 10.0052C13.6325 10.2514 13.5718 10.4747 13.4795 10.6761C14.7163 10.5363 16 10.1638 16 9.21324C15.9997 7.83759 14.1941 6.72206 11.9668 6.72203ZM11.9658 1.07555C11.7116 1.07555 11.4665 1.1142 11.2363 1.18688C11.5419 1.72537 11.7166 2.3478 11.7168 3.0111L11.7119 3.20153C11.6658 4.11191 11.2905 4.93531 10.7031 5.55602C11.0711 5.782 11.5023 5.91539 11.9658 5.91539C13.3022 5.91524 14.3857 4.83187 14.3857 3.49547C14.3855 2.15927 13.302 1.0757 11.9658 1.07555Z" fill="#D1D6DB"/>
<path id="Union" d="M8.06572 6.77539C10.7385 6.77539 12.9053 8.11383 12.9056 9.76465C12.9056 11.4156 9.67902 11.6152 8.06572 11.6152C6.45231 11.6152 3.22588 11.4155 3.22588 9.76465C3.22617 8.1139 5.39306 6.7755 8.06572 6.77539ZM8.06572 0C9.66938 0 10.9698 1.29971 10.97 2.90332C10.97 4.50712 9.66952 5.80762 8.06572 5.80762C6.46207 5.80744 5.1624 4.50701 5.1624 2.90332C5.16262 1.29982 6.46221 0.000173272 8.06572 0Z" fill="#8B95A1"/>
</g>
</svg>
