<svg preserveAspectRatio="none" width="100%" height="100%" overflow="visible" style="display: block;" viewBox="0 0 18 13.0674" fill="none" xmlns="http://www.w3.org/2000/svg">
<g id="Group 10">
<path id="Subtract" d="M4.53711 7.44078C4.80701 7.44078 5.07116 7.45779 5.32812 7.4857C5.09495 7.59438 4.87247 7.71287 4.66309 7.84215C3.52831 8.54293 2.64079 9.62972 2.64062 10.9857L2.64551 11.1351C2.66345 11.4121 2.73104 11.6635 2.83496 11.89C1.44366 11.7324 0 11.3128 0 10.2435C0.000175558 8.69588 2.03141 7.44088 4.53711 7.44078ZM4.53906 1.08922C4.8242 1.08925 5.09916 1.13291 5.35742 1.21422C5.01362 1.82009 4.8174 2.52063 4.81738 3.26695L4.82324 3.4818C4.87534 4.50584 5.29727 5.43225 5.95801 6.13023C5.54444 6.38397 5.05985 6.53349 4.53906 6.53356C3.0355 6.53356 1.81641 5.31446 1.81641 3.8109C1.8166 2.3075 3.03562 1.08922 4.53906 1.08922Z" fill="var(--fill-0, #D1D6DB)"/>
<path id="Subtract_2" d="M13.4629 7.56253C13.193 7.56253 12.9288 7.57954 12.6719 7.60745C12.905 7.71613 13.1275 7.83462 13.3369 7.9639C14.4716 8.66468 15.3592 9.7515 15.3594 11.1075L15.3545 11.2569C15.3366 11.5333 15.2696 11.7846 15.166 12.0108C16.557 11.8534 17.9999 11.4342 18 10.3653C18 8.81755 15.9687 7.56264 13.4629 7.56253ZM13.4609 1.20999C13.1755 1.21003 12.9001 1.25346 12.6416 1.33499C12.9858 1.94113 13.1826 2.6419 13.1826 3.3887L13.1767 3.60355C13.1246 4.62757 12.7027 5.554 12.042 6.25199C12.4555 6.5057 12.9401 6.65525 13.4609 6.65531C14.9645 6.6553 16.1836 5.43619 16.1836 3.93265C16.1834 2.42921 14.9644 1.21 13.4609 1.20999Z" fill="var(--fill-0, #D1D6DB)"/>
<path id="Union" d="M9.07442 7.62305C12.0814 7.62308 14.5185 9.12815 14.5188 10.9854C14.5188 12.8427 10.8894 13.0674 9.07442 13.0674C7.25947 13.0674 3.62911 12.8427 3.62911 10.9854C3.62934 9.12813 6.06744 7.62305 9.07442 7.62305ZM9.07442 0C10.8786 6.89208e-05 12.341 1.46241 12.341 3.2666C12.341 5.07083 10.8786 6.53313 9.07442 6.5332C7.27015 6.5332 5.80782 5.07088 5.80782 3.2666C5.80787 1.46237 7.27018 0 9.07442 0Z" fill="var(--fill-0, #8B95A1)"/>
</g>
</svg>
