<svg viewBox="0 0 16 16" fill="none" xmlns="http://www.w3.org/2000/svg">
<rect width="16" height="16" rx="4" fill="white"/>
<g transform="translate(2, 2)">
<rect y="0.856131" width="12" height="10.2857" rx="1.59184" fill="#D1D6DB"/>
<path d="M7.46939 5.83576L5.34694 7.95821L4.28571 6.89699" stroke="#333D4B" stroke-width="1.06122" stroke-linecap="round" stroke-linejoin="round"/>
<path d="M8.28516 0C8.57821 0 8.81543 0.237224 8.81543 0.530273V0.794922H10.4082C11.2873 0.794943 12 1.5076 12 2.38672V3.36621H0V2.38672C2.15198e-05 1.5076 0.712681 0.794943 1.5918 0.794922H3.18359V0.530273C3.18359 0.237271 3.42088 7.53093e-05 3.71387 0C4.00692 0 4.24414 0.237224 4.24414 0.530273V0.794922H7.75488V0.530273C7.75488 0.237318 7.99224 0.000150861 8.28516 0Z" fill="#3182F6"/>
</g>
</svg>
